<svg width="80px" height="80px" viewBox="0 0 256 256" xmlns="http://www.w3.org/2000/svg"><g fill="#ffffff"><g transform="scale(5.12)"><path d="m25 2c-12.69 0-23 10.31-23 23s10.31 23 23 23 23-10.31 23-23-10.31-23-23-23zm0 2c11.61 0 21 9.3905 21 21s-9.3905 21-21 21-21-9.3905-21-21 9.3905-21 21-21zm9.9883 10.988c-0.3299 0.0065-0.63536 0.17531-0.81641 0.45117l-10.201 15.037-7.291-6.7656c-0.26069-0.25084-0.63652-0.34135-0.98281-0.23667-0.3463 0.10468-0.60907 0.38821-0.68715 0.74145-0.07809 0.35324 0.04068 0.72112 0.31059 0.96201l8.9961 8.3477 11.512-16.965c0.2153-0.3085 0.23926-0.71173 0.06201-1.0436s-0.52573-0.53612-0.90186-0.5287z" /></g></g></svg>
