<svg width="500" height="450" viewBox="0 0 500 450" fill="none" xmlns="http://www.w3.org/2000/svg">
<path d="M250 0H360.443C369.737 0 378.633 3.82919 385.033 10.575L490.676 121.925C496.658 128.231 500 136.602 500 145.297V147.16V148.95C500 156.848 497.25 164.494 492.222 170.582C418.729 259.56 318.215 382.579 270.786 439.84C265.649 446.041 258.048 449.58 250 449.58C241.952 449.58 234.351 446.041 229.214 439.84C181.785 382.579 81.2711 259.56 7.77795 170.582C2.74983 164.494 0 156.848 0 148.95V147.16V145.297C0 136.602 3.34196 128.231 9.32426 121.925L114.967 10.575C121.367 3.82919 130.263 0 139.557 0H250Z" fill="#4AD2FF"/>
</svg>
