<svg xmlns="http://www.w3.org/2000/svg" width="500" height="460" fill="none" viewBox="0 0 500 460">
  <path fill="#000" fill-opacity=".15" d="M360.443 10H139.557c-9.294 0-18.19 3.83-24.59 10.575L9.324 131.925A33.973 33.973 0 0 0 0 155.297v3.653c0 7.898 2.75 15.544 7.778 21.632C81.271 269.56 181.785 392.579 229.214 449.84c5.137 6.201 12.738 9.74 20.786 9.74 8.048 0 15.649-3.539 20.786-9.74 47.429-57.261 147.943-180.28 221.436-269.258A33.964 33.964 0 0 0 500 158.95v-3.653a33.974 33.974 0 0 0-9.324-23.372L385.033 20.575A33.913 33.913 0 0 0 360.443 10Z"/>
  <path fill="#4AD2FF" d="M360.443 0H139.557c-9.294 0-18.19 3.83-24.59 10.575L9.324 121.925A33.973 33.973 0 0 0 0 145.297v3.653c0 7.898 2.75 15.544 7.778 21.632C81.271 259.56 181.785 382.579 229.214 439.84c5.137 6.201 12.738 9.74 20.786 9.74 8.048 0 15.649-3.539 20.786-9.74 47.429-57.261 147.943-180.28 221.436-269.258A33.964 33.964 0 0 0 500 148.95v-3.653a33.974 33.974 0 0 0-9.324-23.372L385.033 10.575A33.913 33.913 0 0 0 360.443 0Z"/>
  <path fill="#3BA8D1" d="M360.443 0H250l118.644 147.16H500v-1.863a33.974 33.974 0 0 0-9.324-23.372L385.033 10.575A33.913 33.913 0 0 0 360.443 0Z"/>
  <path fill="#3BA8D1" d="m250 449.58 118.644-302.42H131.356L250 449.58Z"/>
  <path fill="#3BA8D1" d="M250 0H139.557c-9.294 0-18.19 3.83-24.59 10.575L9.324 121.925A33.973 33.973 0 0 0 0 145.297v1.863h131.356L250 0Z"/>
</svg>
